<svg xmlns="http://www.w3.org/2000/svg" viewBox="5 -3 44 44" width="32" height="32" fill="none">
  <defs>
    <filter id="shadow" x="-10%" y="-10%" width="120%" height="120%">
      <feDropShadow dx="0" dy="1" stdDeviation="1" flood-color="#07121a" flood-opacity="0.8" />
    </filter>
    <g id="brain">
      <line x1="0" y1="-1.2" x2="0" y2="1.2" stroke="#00E5FF" stroke-width="0.3" opacity="0.9" />
      <path d="M 0 -0.8 C -0.8 -0.8 -1.2 -0.5 -1.2 -0.1 C -1.2 0.3 -0.7 0.4 0 0.4" stroke="#00E5FF" stroke-width="0.3" fill="none" />
      <path d="M 0 -0.3 C -1.0 -0.3 -1.3 0.1 -1.3 0.5 C -1.3 0.9 -0.6 1.0 0 1.0" stroke="#00E5FF" stroke-width="0.3" fill="none" />
      <path d="M 0 -0.8 C -0.5 -1.3 -0.2 -1.3 0 -1.0" stroke="#00E5FF" stroke-width="0.3" fill="none" />
      <path d="M 0 -0.8 C 0.8 -0.8 1.2 -0.5 1.2 -0.1 C 1.2 0.3 0.7 0.4 0 0.4" stroke="#00E5FF" stroke-width="0.3" fill="none" />
      <path d="M 0 -0.3 C 1.0 -0.3 1.3 0.1 1.3 0.5 C 1.3 0.9 0.6 1.0 0 1.0" stroke="#00E5FF" stroke-width="0.3" fill="none" />
      <path d="M 0 -0.8 C 0.5 -1.3 0.2 -1.3 0 -1.0" stroke="#00E5FF" stroke-width="0.3" fill="none" />
    </g>
    <filter id="glow" x="-20%" y="-20%" width="140%" height="140%">
      <feGaussianBlur stdDeviation="1" result="blur" />
      <feComposite in="SourceGraphic" in2="blur" operator="over" />
    </filter>
  </defs>
  <g filter="url(#shadow)">
    <g stroke="#00E5FF" opacity="0.6" stroke-linecap="round">
      <path d="M 12 10 L 19.5 28" stroke-width="0.6" />
      <path d="M 12 10 Q 13 19 19.5 28" stroke-width="0.4" opacity="0.7" />
      <path d="M 12 10 Q 18 19 19.5 28" stroke-width="0.4" opacity="0.7" />
      <line x1="12" y1="10" x2="34.5" y2="28" stroke-width="0.6" />
      <line x1="27" y1="10" x2="19.5" y2="28" stroke-width="0.6" />
      <line x1="27" y1="10" x2="34.5" y2="28" stroke-width="0.6" />
      <line x1="42" y1="10" x2="19.5" y2="28" stroke-width="0.6" />
      <path d="M 42 10 L 34.5 28" stroke-width="0.6" />
      <path d="M 42 10 Q 41 19 34.5 28" stroke-width="0.4" opacity="0.7" />
      <path d="M 42 10 Q 36 19 34.5 28" stroke-width="0.4" opacity="0.7" />
    </g>
    <g stroke="#00E5FF" stroke-width="0.5" fill="none" opacity="0.5" filter="url(#glow)">
      <circle cx="12" cy="10" r="5" />
      <circle cx="27" cy="10" r="5" />
      <circle cx="42" cy="10" r="5" />
      <circle cx="19.5" cy="28" r="5" />
      <circle cx="34.5" cy="28" r="5" />
    </g>
    <g stroke="#00E5FF" stroke-width="1" fill="#08121a">
      <circle cx="12" cy="10" r="3.5" />
      <circle cx="27" cy="10" r="3.5" />
      <circle cx="42" cy="10" r="3.5" />
      <circle cx="19.5" cy="28" r="3.5" />
      <circle cx="34.5" cy="28" r="3.5" />
    </g>
    <use href="#brain" x="12" y="10" />
    <use href="#brain" x="27" y="10" />
    <use href="#brain" x="42" y="10" />
    <use href="#brain" x="19.5" y="28" />
    <use href="#brain" x="34.5" y="28" />
  </g>
</svg>
